# xmcd CD database file
#
# Track frame offsets:
#	150
#	17208
#	37052
#	57793
#	76241
#	91712
#	110339
#	129216
#	152532
#	169059
#	186631
#	205536
#	220568
#	242881
#	257442
#	273488
#	292671
#	317799
#
# Disc length: 4442 seconds
#
# Revision: 0
# Processed by: cddbd v1.5.2PL0 Copyright (c) Steve Scherf et al.
# Submitted via: CDex 1.51
#
DISCID=ea115812
DTITLE=NN - Rap Dance compilation 5
DYEAR=1900
DGENRE=Yu Dance
TTITLE0=Dr. Iggy - Sada odlazim
TTITLE1=Djogani - Svaki nas tren
TTITLE2=B-3 - Olovna ruka
TTITLE3=Energie - Snage mi ponestaje
TTITLE4=Duck - Milica
TTITLE5=Knez - Mia bella signorina
TTITLE6=Code - Ceka te novi dan
TTITLE7=Trik FX - Temperatura
TTITLE8=Shot gun - Ortak
TTITLE9=Who is the best - Play
TTITLE10=Leontina - Ne znas sta je zena
TTITLE11=187 - Istina boli
TTITLE12=Madam  Piano - Bonito
TTITLE13=M.I. - Zenska stvar
TTITLE14=Rhythm Attack - Kiki
TTITLE15=In and Out - Da li me znas
TTITLE16=C-ya - Sudbina prave greske
TTITLE17=No Nome - Zurka
EXTD=
EXTT0=
EXTT1=
EXTT2=
EXTT3=
EXTT4=
EXTT5=
EXTT6=
EXTT7=
EXTT8=
EXTT9=
EXTT10=
EXTT11=
EXTT12=
EXTT13=
EXTT14=
EXTT15=
EXTT16=
EXTT17=
PLAYORDER=
